<mxfile host="app.diagrams.net" modified="2021-09-16T08:54:29.846Z" agent="5.0 (Windows NT 10.0; Win64; x64) AppleWebKit/537.36 (KHTML, like Gecko) Chrome/92.0.4515.131 Safari/537.36 OPR/78.0.4093.214" etag="BIAUtBm3EQ6Fat4KKHXW" version="15.1.0" type="github">
  <diagram id="s71BA5iyhNGKBwj2s1iU" name="Page-1">
    <mxGraphModel dx="827" dy="521" grid="1" gridSize="10" guides="1" tooltips="1" connect="1" arrows="1" fold="1" page="1" pageScale="1" pageWidth="850" pageHeight="1100" math="0" shadow="0">
      <root>
        <mxCell id="0" />
        <mxCell id="1" parent="0" />
        <mxCell id="nLv5DIZqpiSKogzFKnNS-1" value="mulai" style="ellipse;whiteSpace=wrap;html=1;" vertex="1" parent="1">
          <mxGeometry x="340" y="40" width="190" height="40" as="geometry" />
        </mxCell>
        <mxCell id="nLv5DIZqpiSKogzFKnNS-3" value="1,1,2,3,5,8,13" style="shape=parallelogram;perimeter=parallelogramPerimeter;whiteSpace=wrap;html=1;fixedSize=1;" vertex="1" parent="1">
          <mxGeometry x="360" y="160" width="150" height="60" as="geometry" />
        </mxCell>
        <mxCell id="nLv5DIZqpiSKogzFKnNS-4" value="" style="endArrow=classic;html=1;" edge="1" parent="1">
          <mxGeometry width="50" height="50" relative="1" as="geometry">
            <mxPoint x="434.5" y="80" as="sourcePoint" />
            <mxPoint x="434.5" y="160" as="targetPoint" />
          </mxGeometry>
        </mxCell>
        <mxCell id="nLv5DIZqpiSKogzFKnNS-6" value="fahrenheit convert celsius" style="shape=parallelogram;perimeter=parallelogramPerimeter;whiteSpace=wrap;html=1;fixedSize=1;" vertex="1" parent="1">
          <mxGeometry x="550" y="160" width="180" height="60" as="geometry" />
        </mxCell>
        <mxCell id="nLv5DIZqpiSKogzFKnNS-7" value="" style="endArrow=classic;html=1;" edge="1" parent="1">
          <mxGeometry width="50" height="50" relative="1" as="geometry">
            <mxPoint x="500" y="189.5" as="sourcePoint" />
            <mxPoint x="560" y="189.5" as="targetPoint" />
            <Array as="points">
              <mxPoint x="530" y="189.5" />
            </Array>
          </mxGeometry>
        </mxCell>
        <mxCell id="nLv5DIZqpiSKogzFKnNS-8" value="" style="endArrow=classic;html=1;exitX=0.433;exitY=1;exitDx=0;exitDy=0;exitPerimeter=0;" edge="1" parent="1" source="nLv5DIZqpiSKogzFKnNS-6">
          <mxGeometry width="50" height="50" relative="1" as="geometry">
            <mxPoint x="629.5" y="230" as="sourcePoint" />
            <mxPoint x="629.5" y="290" as="targetPoint" />
            <Array as="points">
              <mxPoint x="629.5" y="260" />
            </Array>
          </mxGeometry>
        </mxCell>
        <mxCell id="nLv5DIZqpiSKogzFKnNS-12" value="" style="endArrow=classic;html=1;" edge="1" parent="1">
          <mxGeometry width="50" height="50" relative="1" as="geometry">
            <mxPoint x="570" y="309.5" as="sourcePoint" />
            <mxPoint x="510" y="309.5" as="targetPoint" />
            <Array as="points">
              <mxPoint x="555" y="310" />
              <mxPoint x="520" y="310" />
            </Array>
          </mxGeometry>
        </mxCell>
        <mxCell id="nLv5DIZqpiSKogzFKnNS-13" value="end" style="shape=parallelogram;perimeter=parallelogramPerimeter;whiteSpace=wrap;html=1;fixedSize=1;" vertex="1" parent="1">
          <mxGeometry x="400" y="280" width="120" height="60" as="geometry" />
        </mxCell>
        <mxCell id="nLv5DIZqpiSKogzFKnNS-14" value="&lt;span&gt;1=&lt;/span&gt;&lt;span&gt;&amp;nbsp;&lt;/span&gt;&lt;span&gt;-17,22&lt;/span&gt;&lt;b&gt;&amp;nbsp;°C&lt;/b&gt;&lt;br&gt;&lt;span&gt;2=&lt;/span&gt;&lt;span&gt;-16,67&lt;/span&gt;&lt;b&gt;&amp;nbsp;°C&lt;/b&gt;&lt;br&gt;&lt;span&gt;3=&lt;/span&gt;&lt;span&gt;16,11&lt;/span&gt;&lt;b&gt;&amp;nbsp;°C&lt;/b&gt;&lt;br&gt;&lt;span&gt;5=&lt;/span&gt;&lt;span&gt;-15&lt;/span&gt;&lt;b&gt;&amp;nbsp;°C&lt;/b&gt;&lt;br&gt;&lt;span&gt;8=&lt;/span&gt;&lt;span&gt;&amp;nbsp;&lt;/span&gt;&lt;span&gt;-13,33&lt;/span&gt;&lt;b&gt;&amp;nbsp;°C&lt;/b&gt;&lt;br&gt;&lt;span&gt;13=&lt;/span&gt;&lt;span&gt;-10,56&lt;/span&gt;&lt;b&gt;&amp;nbsp;°C&lt;/b&gt;" style="rounded=0;whiteSpace=wrap;html=1;" vertex="1" parent="1">
          <mxGeometry x="570" y="290" width="130" height="100" as="geometry" />
        </mxCell>
      </root>
    </mxGraphModel>
  </diagram>
</mxfile>
